<?xml version="1.0" encoding="UTF-8" standalone="no"?>
<!-- Created with Inkscape (http://www.inkscape.org/) -->

<svg
   xmlns:dc="http://purl.org/dc/elements/1.1/"
   xmlns:cc="http://creativecommons.org/ns#"
   xmlns:rdf="http://www.w3.org/1999/02/22-rdf-syntax-ns#"
   xmlns:svg="http://www.w3.org/2000/svg"
   xmlns="http://www.w3.org/2000/svg"
   xmlns:sodipodi="http://sodipodi.sourceforge.net/DTD/sodipodi-0.dtd"
   xmlns:inkscape="http://www.inkscape.org/namespaces/inkscape"
   width="32"
   height="32"
   id="svg2"
   version="1.1"
   inkscape:version="0.48.5 r10040"
   sodipodi:docname="yes.svg">
  <defs
     id="defs4" />
  <sodipodi:namedview
     id="base"
     pagecolor="#ffffff"
     bordercolor="#666666"
     borderopacity="1.0"
     inkscape:pageopacity="0.0"
     inkscape:pageshadow="2"
     inkscape:zoom="11.2"
     inkscape:cx="9.06041"
     inkscape:cy="16.42592"
     inkscape:document-units="px"
     inkscape:current-layer="layer1"
     showgrid="false"
     inkscape:window-width="1280"
     inkscape:window-height="998"
     inkscape:window-x="-4"
     inkscape:window-y="-4"
     inkscape:window-maximized="1" />
  <metadata
     id="metadata7">
    <rdf:RDF>
      <cc:Work
         rdf:about="">
        <dc:format>image/svg+xml</dc:format>
        <dc:type
           rdf:resource="http://purl.org/dc/dcmitype/StillImage" />
        <dc:title />
      </cc:Work>
    </rdf:RDF>
  </metadata>
  <g
     inkscape:label="Capa 1"
     inkscape:groupmode="layer"
     id="layer1"
     transform="translate(0,-1020.3622)"
     style="display:inline">
    <path
       sodipodi:type="arc"
       style="opacity:0;fill:#00ff00;stroke:none"
       id="path2985"
       sodipodi:cx="0"
       sodipodi:cy="0.035714202"
       sodipodi:rx="31.785715"
       sodipodi:ry="32.05357"
       d="M 31.785715,0.0357142 C 31.785715,17.738412 17.554766,32.089284 0,32.089284 c -17.554766,0 -31.785715,-14.350872 -31.785715,-32.0535698 0,-17.7026982 14.230949,-32.0535702 31.785715,-32.0535702 17.554766,0 31.785715,14.350872 31.785715,32.0535702 z"
       transform="translate(0,1020.3622)" />
    <path
       sodipodi:type="arc"
       style="opacity:0;fill:#00ff00;stroke:none"
       id="path2987"
       sodipodi:cx="15.401786"
       sodipodi:cy="13.517858"
       sodipodi:rx="4.5089288"
       sodipodi:ry="4.4642859"
       d="m 19.910715,13.517858 c 0,2.465557 -2.018717,4.464285 -4.508929,4.464285 -2.490213,0 -4.508929,-1.998728 -4.508929,-4.464285 0,-2.465557 2.018716,-4.4642863 4.508929,-4.4642863 2.490212,0 4.508929,1.9987293 4.508929,4.4642863 z"
       transform="translate(0,1020.3622)" />
    <path
       sodipodi:type="arc"
       style="opacity:0;fill:#000080;stroke:none"
       id="path2989"
       sodipodi:cx="17.276785"
       sodipodi:cy="27"
       sodipodi:rx="7.0089288"
       sodipodi:ry="0.71428573"
       d="m 24.285714,27 c 0,0.394489 -3.138005,0.714286 -7.008929,0.714286 -3.870925,0 -7.008929,-0.319797 -7.008929,-0.714286 0,-0.394489 3.138004,-0.714286 7.008929,-0.714286 3.870924,0 7.008929,0.319797 7.008929,0.714286 z"
       transform="translate(0,1020.3622)" />
    <path
       sodipodi:type="arc"
       style="opacity:0;fill:#000080;stroke:none"
       id="path2991"
       sodipodi:cx="11.026786"
       sodipodi:cy="10.616072"
       sodipodi:rx="7.9910712"
       sodipodi:ry="8.3482141"
       d="m 19.017857,10.616072 c 0,4.610591 -3.577724,8.348214 -7.991071,8.348214 -4.4133469,0 -7.9910714,-3.737623 -7.9910714,-8.348214 0,-4.6105917 3.5777245,-8.3482144 7.9910714,-8.3482144 4.413347,0 7.991071,3.7376227 7.991071,8.3482144 z"
       transform="translate(0,1020.3622)" />
    <path
       sodipodi:type="arc"
       style="opacity:0;fill:#000080;stroke:none"
       id="path2993"
       sodipodi:cx="15.446428"
       sodipodi:cy="7.8482141"
       sodipodi:rx="9.5535717"
       sodipodi:ry="8.8839283"
       d="m 25,7.8482141 c 0,4.9064579 -4.27728,8.8839279 -9.553572,8.8839279 -5.276292,0 -9.5535714,-3.97747 -9.5535714,-8.8839279 0,-4.9064581 4.2772794,-8.8839282 9.5535714,-8.8839282 C 20.72272,-1.0357141 25,2.941756 25,7.8482141 z"
       transform="translate(0,1020.3622)" />
    <path
       sodipodi:type="arc"
       style="fill:#00a200;fill-opacity:0.79215685999999996;stroke:#ffffff;stroke-width:2.08429023;stroke-miterlimit:4;stroke-opacity:1;stroke-dasharray:none"
       id="path3767"
       sodipodi:cx="15.758928"
       sodipodi:cy="15.616072"
       sodipodi:rx="15.580358"
       sodipodi:ry="15.580358"
       d="m 31.339286,15.616072 a 15.580358,15.580358 0 1 1 -31.16071525,0 15.580358,15.580358 0 1 1 31.16071525,0 z"
       transform="matrix(0.95955926,0,0,0.95955927,0.86051687,1021.3955)" />
  </g>
</svg>
